name Walk6.mot
datacolumns 19
datarows 12
range 2.55500000 2.61000000
endheader

                time	   L_ground_force_vx	   L_ground_force_vy	   L_ground_force_vz	   L_ground_force_px	   L_ground_force_py	   L_ground_force_pz	   R_ground_force_vx	   R_ground_force_vy	   R_ground_force_vz	   R_ground_force_px	   R_ground_force_py	   R_ground_force_pz	   L_ground_torque_x	   L_ground_torque_y	   L_ground_torque_z	   R_ground_torque_x	   R_ground_torque_y	   R_ground_torque_z	
          2.55500000	         47.22717151	        958.33516049	         70.44753903	         -0.16642756	          0.00000000	         -0.08818750	          0.00080344	         -0.01337060	         -0.00012615	          0.00002542	          0.00000000	          0.00000564	          0.00000000	         -1.20322996	          0.00000000	          0.00000000	         -0.00007427	          0.00000000	
          2.56000000	         48.08489627	        959.86013064	         71.00979579	         -0.16352061	          0.00000000	         -0.08865325	         -0.00206596	          0.00952764	          0.00257478	          0.00005697	          0.00000000	          0.00001260	          0.00000000	         -1.13166803	          0.00000000	          0.00000000	          0.00032723	          0.00000000	
          2.56500000	         49.08733218	        961.39189259	         71.53903571	         -0.16063012	          0.00000000	         -0.08909836	         -0.00628565	          0.04405966	          0.00646901	          0.00009915	          0.00000000	          0.00002190	          0.00000000	         -1.06545053	          0.00000000	          0.00000000	          0.00091296	          0.00000000	
          2.57000000	         50.19133256	        962.97265938	         72.06191171	         -0.15774883	          0.00000000	         -0.08952529	         -0.01209055	          0.09247440	          0.01174379	          0.00015269	          0.00000000	          0.00003369	          0.00000000	         -1.00176775	          0.00000000	          0.00000000	          0.00171375	          0.00000000	
          2.57500000	         51.35397844	        964.64844422	         72.60146761	         -0.15486830	          0.00000000	         -0.08993608	         -0.01965149	          0.15656667	          0.01852083	          0.00021734	          0.00000000	          0.00004794	          0.00000000	         -0.93730305	          0.00000000	          0.00000000	          0.00275113	          0.00000000	
          2.58000000	         52.53753512	        966.47157087	         73.17442473	         -0.15198068	          0.00000000	         -0.09033238	         -0.02901828	          0.23720179	          0.02680467	          0.00029136	          0.00000000	          0.00006423	          0.00000000	         -0.86880804	          0.00000000	          0.00000000	          0.00402951	          0.00000000	
          2.58500000	         53.71355867	        968.49968176	         73.78855552	         -0.14907992	          0.00000000	         -0.09071588	         -0.04004590	          0.33368892	          0.03641656	          0.00037085	          0.00000000	          0.00008173	          0.00000000	         -0.79354470	          0.00000000	          0.00000000	          0.00552603	          0.00000000	
          2.59000000	         54.86476377	        970.79337525	         74.44185687	         -0.14616310	          0.00000000	         -0.09108832	         -0.05230336	          0.44299578	          0.04691396	          0.00044906	          0.00000000	          0.00009892	          0.00000000	         -0.70951798	          0.00000000	          0.00000000	          0.00717817	          0.00000000	
          2.59500000	         55.98521739	        973.41317117	         75.12248541	         -0.14323094	          0.00000000	         -0.09145157	         -0.06496692	          0.55881287	          0.05749758	          0.00051565	          0.00000000	          0.00011354	          0.00000000	         -0.61604367	          0.00000000	          0.00000000	          0.00886920	          0.00000000	
          2.60000000	         57.07994757	        976.41950640	         75.80940177	         -0.14028786	          0.00000000	         -0.09180620	         -0.07670198	          0.67049836	          0.06691041	          0.00055589	          0.00000000	          0.00012233	          0.00000000	         -0.51389220	          0.00000000	          0.00000000	          0.01041234	          0.00000000	
          2.60500000	         58.16510285	        979.87244726	         76.47461811	         -0.13734269	          0.00000000	         -0.09215155	         -0.08554189	          0.76196717	          0.07333663	          0.00055008	          0.00000000	          0.00012095	          0.00000000	         -0.40521983	          0.00000000	          0.00000000	          0.01153455	          0.00000000	
          2.61000000	         59.26916528	        983.83014004	         77.08739869	         -0.13440851	          0.00000000	         -0.09248582	         -0.08877694	          0.81062983	          0.07431310	          0.00047319	          0.00000000	          0.00010389	          0.00000000	         -0.29339261	          0.00000000	          0.00000000	          0.01186197	          0.00000000	
